<svg fill="#FEEFDD" height="1121" width="1074" version="1.2" baseProfile="tiny" xmlns="http://www.w3.org/2000/svg" xmlns:xlink="http://www.w3.org/1999/xlink" xml:space="preserve" style=""><rect id="backgroundrect" width="100%" height="100%" x="0" y="0" fill="none" stroke="none"/><g class="currentLayer" style=""><title>Layer 1</title><g id="SVGRepo_bgCarrier" stroke-width="0" class=""/><g id="SVGRepo_tracerCarrier" stroke-linecap="round" stroke-linejoin="round" class=""/><g id="SVGRepo_iconCarrier" class="selected" opacity="1" filter="" stroke-width="20" stroke="#000000" stroke-opacity="1"> <path d="M1010.9598642779863,474.9119220813637 v4.116541114105018 l-70.31358592111194,-70.3928530511958 c35.773578801969215,-9.879698673852038 67.43525199451669,-57.21992148605975 67.43525199451669,-96.32706207005738 l-151.72931698766254,14.40789389936756 l-32.895244875374,-32.932328912840134 c-40.29667497233314,-37.46052413835565 -93.34025733387372,-61.74811671157524 -151.72931698766254,-61.74811671157524 h-14.391669632976125 l-455.5991415239298,9.46804456244154 c-57.97786909284668,6.586465782568028 -89.22835172445195,30.46240424437713 -115.133357063809,55.16165092900722 c0,0 -32.895244875374,27.169171353093112 -37.418341045737925,-5.7631575597470235 c1.2335716828265264,-24.287592573219598 39.474293850448795,-36.637215915534654 39.474293850448795,-36.637215915534654 c-38.651912728564454,-14.40789389936756 -66.61287087263236,6.586465782568028 -66.61287087263236,42.400373475281675 c0,21.40601379334609 9.868573462612199,40.34210291822916 25.905005339357025,51.4567639263127 c-17.27000355957135,31.69736657860863 -25.905005339357025,65.86465782568027 -25.905005339357025,103.32518196403593 v50.221801592081206 v18.524435013472573 v221.05825782743938 l38.651912728564454,55.98495915182822 h70.31358592111194 l-51.39882011777187,-74.5093941653008 l43.175008898928375,-58.86653793170175 l93.34025733387372,133.37593209700256 h70.31358592111194 l-70.31358592111194,-100.44360318416241 l55.09953516625145,-77.80262705658481 c60.033821897557544,19.759397347704077 121.30121547794161,41.988719363871176 192.02599195999576,41.988719363871176 c14.802860193918299,0 30.016910948778772,-0.8233082228210046 45.64215226458141,-2.8815787798735157 l24.671433656530496,45.693606366565675 v35.81390769271365 l38.651912728564454,55.98495915182822 h70.31358592111194 l-51.39882011777187,-74.5093941653008 l26.727386461241377,-85.21240106197385 c9.457382901670025,-2.4699246684630136 -9.046192340727849,2.4699246684630136 0,0 l112.25502313721378,160.13344933868512 h70.31358592111194 l-51.39882011777187,-74.5093941653008 v-133.37593209700256 h233.5562386151554 c38.651912728564454,0 71.54715760393843,-31.69736657860863 71.54715760393843,-71.6278153854273 v-41.577065252460656 H1010.9598642779863 z" id="svg_1" opacity="1" filter="" stroke-width="20" stroke="#000000" stroke-opacity="1"/> </g></g><defs><filter id="f166" inkscape:menu-tooltip="Draws a black outline around" xmlns:inkscape="http://www.inkscape.org/namespaces/inkscape" inkscape:menu="ABCs" inkscape:label="Black outline" color-interpolation-filters="sRGB">
            <feGaussianBlur stdDeviation="2" in="SourceAlpha" result="result0"/>
            <feComposite result="result3" operator="arithmetic" in2="result0" in="SourceGraphic" k2="1" k3="10"/>
            <feComposite k2="1" operator="in" in="result3" result="result4" in2="result3"/>
        </filter></defs></svg>